<?xml version="1.0" encoding="utf-8"?>
<!-- Generator: Adobe Illustrator 16.0.3, SVG Export Plug-In . SVG Version: 6.00 Build 0)  -->
<!DOCTYPE svg PUBLIC "-//W3C//DTD SVG 1.1//EN" "http://www.w3.org/Graphics/SVG/1.1/DTD/svg11.dtd">
<svg version="1.1" id="Layer_1" xmlns="http://www.w3.org/2000/svg" xmlns:xlink="http://www.w3.org/1999/xlink" x="0px" y="0px"
	 width="726.165px" height="726.165px" viewBox="0 0 726.165 726.165" enable-background="new 0 0 726.165 726.165"
	 xml:space="preserve">
<path id="Selection" fill="#000001" stroke="#000000" d="M0,0v726.165h211.048v-57.012c18.304,7.32,36.929,14.104,56.013,19.123
	c63.915,16.795,136.871,18.936,200.045-2.119c32.018-10.674,65.564-28.227,88.93-53.012c16.754-17.775,30.008-38.799,37.75-62.016
	c2.5-7.512,4.33-15.203,5.602-23.004c0.389-2.432,0.75-9.133,1.77-10.693c1.621-2.471,6.242-3,8.982-3.68
	c5.801-1.461,11.783-3.563,17.004-6.502c18.863-10.643,31.457-28.047,35.998-49.143c1.701-7.91,1.73-15.053,1.09-23.004
	c-4.271-53.522-62.283-83.279-109.105-59.014c-6.551-12.273-30.166-35.488-41.008-45.17
	c-39.049-34.878-75.918-54.612-124.029-73.857l23.605-40.009l43.211-72.016l18.004-30.007c1.43-2.391,6.16-10.962,8.121-12.083
	c2.461-1.4,6.961,2.2,9.082,3.48l23.006,13.803l56.012,33.608l14.004,8.602c2.281,1.391,5.691,3.171,6.621,5.701
	c1.211,2.301,0.189,5.501,0,7.902c-0.779,3.901-0.66,8.052-0.619,12.003c0.33,27.696,24.285,51.682,52.012,52.012
	c23.525,0.27,43.949-9.732,54.111-32.007c12.363-27.106,1.311-59.423-25.105-73.236c-7.221-3.771-13.844-5.742-22.004-5.781
	c-11.914-0.061-19.135,0.74-30.008,6.271c-4.512,2.301-11.352,9.462-16.004,7.882l-29.006-17.154l-61.014-36.608l-23.006-14.003
	c-3.471-2.081-7.852-5.031-12.002-5.031c-7.713-0.01-11.494,5.801-15.004,11.633L445.5,133.03l-57.012,95.021l-15.555,26.006
	c-1.529,2.661-6.051,10.803-8.23,12.313c-2.952,2.061-9.302-0.35-12.624-1.18l-31.007-6.711
	c-34.108-6.151-75.728-7.942-110.025-3.421V0H0z M211.048,466.106V355.081c20.025,4.041,35.018,15.734,42.55,35.007
	C266.141,422.176,245.946,461.184,211.048,466.106z M427.098,433.389c19.094-1.811,36.027,2.561,49.58,16.883
	c25.406,26.836,18.375,73.396-15.574,89.531c-10.961,5.211-17.264,5.451-29.006,5.32c-39.838-0.469-62.934-42.729-48.561-78.018
	C391.168,448.372,407.463,436.639,427.098,433.389z M212.048,556.127c38.819,25.875,81.338,40.559,128.029,42.27
	c8.112,0.289,21.215-0.842,29.007-3.002l16.004-5.461c9.732-2.07,17.732,5.451,16.893,15.203
	c-0.689,8.012-6.25,10.703-12.893,13.404c-11.053,4.48-24.064,7.32-36.008,7.602l-13.003,0.959l-8.002-1h-9.002
	c-27.806-2.779-55.322-9.871-81.018-20.814l-21.005-10.012c-2.13-1.18-7.001-3.781-8.402-5.531c-1.621-2.012-1.55-4.172-1.601-6.611
	C210.948,577.401,210.268,560.618,212.048,556.127z"/>
</svg>
